HIERARCHY
ROOT hip
{
  OFFSET 0 0 0
  CHANNELS 6 Xposition Yposition Zposition Zrotation Yrotation Xrotation
  JOINT abdomen
  {
    OFFSET 0 20.6881 -0.73152
    CHANNELS 3 Zrotation Xrotation Yrotation
    JOINT chest
    {
      OFFSET 0 11.7043 -0.48768
      CHANNELS 3 Zrotation Xrotation Yrotation
      JOINT neck
      {
        OFFSET 0 22.1894 -2.19456
        CHANNELS 3 Zrotation Xrotation Yrotation
        JOINT head
        {
          OFFSET -0.24384 7.07133 1.2192
          CHANNELS 3 Zrotation Xrotation Yrotation
          JOINT leftEye
          {
            OFFSET 4.14528 8.04674 8.04672
            CHANNELS 3 Zrotation Xrotation Yrotation
            End Site
            {
              OFFSET 1 0 0
            }
          }
          JOINT rightEye
          {
            OFFSET -3.6576 8.04674 8.04672
            CHANNELS 3 Zrotation Xrotation Yrotation
            End Site
            {
              OFFSET 1 0 0
            }
          }
        }
      }
      JOINT rCollar
      {
        OFFSET -2.68224 19.2634 -4.8768
        CHANNELS 3 Zrotation Xrotation Yrotation
        JOINT rShldr
        {
          OFFSET -8.77824 -1.95073 1.46304
          CHANNELS 3 Zrotation Xrotation Yrotation
          JOINT rForeArm
          {
            OFFSET -28.1742 -1.7115 0.48768
            CHANNELS 3 Zrotation Xrotation Yrotation
            JOINT rHand
            {
              OFFSET -22.5879 0.773209 7.07136
              CHANNELS 3 Zrotation Xrotation Yrotation
              JOINT rThumb1
              {
                OFFSET -1.2192 -0.487915 3.41376
                CHANNELS 3 Zrotation Xrotation Yrotation
                JOINT rThumb2
                {
                  OFFSET -3.37035 -0.52449 3.41376
                  CHANNELS 3 Zrotation Xrotation Yrotation
                  End Site
                  {
                    OFFSET -1.78271 -1.18214 1.43049
                  }
                }
              }
              JOINT rIndex1
              {
                OFFSET -7.75947 0.938293 5.60832
                CHANNELS 3 Zrotation Xrotation Yrotation
                JOINT rIndex2
                {
                  OFFSET -2.54057 -0.884171 1.56538
                  CHANNELS 3 Zrotation Xrotation Yrotation
                  End Site
                  {
                    OFFSET -1.62519 -0.234802 1.16502
                  }
                }
              }
              JOINT rMid1
              {
                OFFSET -8.24714 1.18213 3.41376
                CHANNELS 3 Zrotation Xrotation Yrotation
                JOINT rMid2
                {
                  OFFSET -3.10165 -0.590103 1.0647
                  CHANNELS 3 Zrotation Xrotation Yrotation
                  End Site
                  {
                    OFFSET -2.48547 -0.328903 0.83742
                  }
                }
              }
              JOINT rRing1
              {
                OFFSET -8.82822 0.546677 1.51678
                CHANNELS 3 Zrotation Xrotation Yrotation
                JOINT rRing2
                {
                  OFFSET -2.60934 -0.819778 -0.0198488
                  CHANNELS 3 Zrotation Xrotation Yrotation
                  End Site
                  {
                    OFFSET -2.33842 -0.294052 0.168128
                  }
                }
              }
              JOINT rPinky1
              {
                OFFSET -8.27202 -0.0477905 -0.4584
                CHANNELS 3 Zrotation Xrotation Yrotation
                JOINT rPinky2
                {
                  OFFSET -1.82734 -0.647385 -0.700984
                  CHANNELS 3 Zrotation Xrotation Yrotation
                  End Site
                  {
                    OFFSET -1.69225 -0.51767 -0.607171
                  }
                }
              }
            }
          }
        }
      }
      JOINT lCollar
      {
        OFFSET 2.68224 19.2634 -4.8768
        CHANNELS 3 Zrotation Xrotation Yrotation
        JOINT lShldr
        {
          OFFSET 8.77824 -1.95073 1.46304
          CHANNELS 3 Zrotation Xrotation Yrotation
          JOINT lForeArm
          {
            OFFSET 28.1742 -1.7115 0.48768
            CHANNELS 3 Zrotation Xrotation Yrotation
            JOINT lHand
            {
              OFFSET 22.5879 0.773209 7.07136
              CHANNELS 3 Zrotation Xrotation Yrotation
              JOINT lThumb1
              {
                OFFSET 1.2192 -0.487915 3.41376
                CHANNELS 3 Zrotation Xrotation Yrotation
                JOINT lThumb2
                {
                  OFFSET 3.37035 -0.52449 3.41376
                  CHANNELS 3 Zrotation Xrotation Yrotation
                  End Site
                  {
                    OFFSET 1.78271 -1.18214 1.43049
                  }
                }
              }
              JOINT lIndex1
              {
                OFFSET 7.75947 0.938293 5.60832
                CHANNELS 3 Zrotation Xrotation Yrotation
                JOINT lIndex2
                {
                  OFFSET 2.54057 -0.884171 1.56538
                  CHANNELS 3 Zrotation Xrotation Yrotation
                  End Site
                  {
                    OFFSET 1.62519 -0.234802 1.16502
                  }
                }
              }
              JOINT lMid1
              {
                OFFSET 8.24714 1.18213 3.41376
                CHANNELS 3 Zrotation Xrotation Yrotation
                JOINT lMid2
                {
                  OFFSET 3.10165 -0.590103 1.0647
                  CHANNELS 3 Zrotation Xrotation Yrotation
                  End Site
                  {
                    OFFSET 2.48547 -0.328903 0.83742
                  }
                }
              }
              JOINT lRing1
              {
                OFFSET 8.82822 0.546677 1.51678
                CHANNELS 3 Zrotation Xrotation Yrotation
                JOINT lRing2
                {
                  OFFSET 2.60934 -0.819778 -0.0198488
                  CHANNELS 3 Zrotation Xrotation Yrotation
                  End Site
                  {
                    OFFSET 2.33842 -0.294052 0.168128
                  }
                }
              }
              JOINT lPinky1
              {
                OFFSET 8.27202 -0.0477905 -0.4584
                CHANNELS 3 Zrotation Xrotation Yrotation
                JOINT lPinky2
                {
                  OFFSET 1.82734 -0.647385 -0.700984
                  CHANNELS 3 Zrotation Xrotation Yrotation
                  End Site
                  {
                    OFFSET 1.69225 -0.51767 -0.607171
                  }
                }
              }
            }
          }
        }
      }
    }
  }
  JOINT rButtock
  {
    OFFSET -8.77824 4.35084 1.2192
    CHANNELS 3 Zrotation Xrotation Yrotation
    JOINT rThigh
    {
      OFFSET 0 -1.70687 -2.19456
      CHANNELS 3 Zrotation Xrotation Yrotation
      JOINT rShin
      {
        OFFSET 0 -36.8199 0.73152
        CHANNELS 3 Zrotation Xrotation Yrotation
        JOINT rFoot
        {
          OFFSET 0.73152 -45.1104 -5.12064
          CHANNELS 3 Zrotation Xrotation Yrotation
          End Site
          {
            OFFSET -1.1221 -3.69964 12.103
          }
        }
      }
    }
  }
  JOINT lButtock
  {
    OFFSET 8.77824 4.35084 1.2192
    CHANNELS 3 Zrotation Xrotation Yrotation
    JOINT lThigh
    {
      OFFSET 0 -1.70687 -2.19456
      CHANNELS 3 Zrotation Xrotation Yrotation
      JOINT lShin
      {
        OFFSET 0 -36.8199 0.73152
        CHANNELS 3 Zrotation Xrotation Yrotation
        JOINT lFoot
        {
          OFFSET -0.73152 -45.1104 -5.12064
          CHANNELS 3 Zrotation Xrotation Yrotation
          End Site
          {
            OFFSET 1.1221 -3.69964 12.103
          }
        }
      }
    }
  }
}
MOTION
Frames:	5
Frame Time:	0.03333
0.0 0.0 0.0 0.0 0.0 0.0 0.0 0.0 0.0 0.0 0.0 0.0 0.0 0.0 0.0 0.0 0.0 0.0 0.0 0.0 0.0 0.0 0.0 0.0 0.0 0.0 0.0 0.0 0.0 0.0 0.0 0.0 0.0 0.0 0.0 0.0 0.0 0.0 0.0 0.0 0.0 0.0 0.0 0.0 0.0 0.0 0.0 0.0 0.0 0.0 0.0 0.0 0.0 0.0 0.0 0.0 0.0 0.0 0.0 0.0 0.0 0.0 0.0 0.0 0.0 0.0 0.0 0.0 0.0 0.0 0.0 0.0 0.0 0.0 0.0 0.0 0.0 0.0 0.0 0.0 0.0 0.0 0.0 0.0 0.0 0.0 0.0 0.0 0.0 0.0 0.0 0.0 0.0 0.0 0.0 0.0 0.0 0.0 0.0 0.0 0.0 0.0 0.0 0.0 0.0 0.0 0.0 0.0 0.0 0.0 0.0 0.0 0.0 0.0 0.0 0.0 0.0 0.0 0.0 0.0 0.0 0.0 0.0 0.0 0.0 0.0 0.0 0.0 0.0 0.0 0.0 0.0
-0.0535 64.9109 -0.13470000000000001 -179.725039 13.659215 -179.944481 0.33683 -1.08791 0.020428 -0.383586 12.983902 -1.710657 9.994549 -18.03835 80.67194 -39.702494 17.990512 -94.586355 166.338717 3.331107 -27.288991 63.123511 -12.365145 -20.002191 94.839131 -15.678133 7.816409 -10.131474 13.370337 5.573089 46.70956 81.040334 -48.804388 162.419836 -14.322525 159.737343 -135.316742 -78.887736 22.826308 -97.144406 4.529869 159.433621 -86.525819 62.956862 79.767437 -95.440938 61.381203 22.246721 -23.495813 -89.521027 -30.186001 19.626631 53.223184 45.90599 -74.299728 32.921385 56.153387 -0.487257 -74.349184 -78.963022 -175.749902 -31.775234 -162.634915 -27.517443 -55.18249 -5.081799 60.185245 18.026469 -127.764141 114.726548 44.584044 -131.467365 0.462338 45.094444 -30.520957 -179.47492 -21.038443 132.141102 84.897457 50.512854 119.495447 -18.27772 -54.25872 -28.22996 -131.71089 16.106506 56.779714 0.310255 12.344602 -50.792666 36.712298 33.072099 85.812732 28.950969 18.90149 -125.069522 75.839557 81.516759 -25.33182 118.42061 32.147367 -131.053234 140.290874 -63.357057 114.301097 152.058265 3.641506 147.841742 -14.874678 -54.292609 -0.935858 26.965223 54.420065 -22.16732 -3.588161 -8.864327 -30.986386 -91.854024 71.398354 96.241398 12.909291 -61.745588 15.613754 1.624966 61.159357 -162.352707 -3.423645 -8.274135 -29.227151 77.787263 -10.760466 -100.151891
-1.7915 57.4767 -0.9649 -13.424099 52.623461 -4.269357 3.50122 12.954243 -0.0 2.360456 -9.88413 3.070024 -14.910686 27.282515 -77.956484 44.336246 13.21132 91.581894 -33.642516 -15.383384 48.143826 -3.148032 -0.927669 32.831461 -14.579668 31.902262 22.098368 63.743119 -9.10403 35.529205 -0.9509 8.624511 109.332233 -5.600552 18.259482 -4.380471 117.2256 -62.950407 78.08001 -151.30256 -22.191664 149.217836 -17.050161 -22.239878 -15.08255 100.810379 69.503004 -104.654736 -170.272617 -75.658953 171.45642 -88.643764 73.69988 83.62934 -18.67746 35.534218 39.526336 -97.766543 -56.327988 -127.25758 -63.623873 -34.953034 -15.885632 54.988241 -20.097158 -49.402015 155.389455 -32.11938 -176.05809 50.299043 -27.667107 53.796506 89.679432 20.189617 112.142226 -58.890882 -69.339588 -40.630188 5.497754 17.494852 16.747002 145.097685 -39.362373 -91.005284 -8.28856 -24.869925 15.713314 -2.437674 32.42564 -38.49967 3.648185 32.808618 -9.752875 -9.416329 70.323433 51.133451 133.582988 0.43662 178.942511 6.899876 -57.15315 64.282842 18.439088 60.659828 46.312269 23.381847 1.145482 -93.509604 84.082221 49.582526 60.191169 -136.789209 43.781921 126.373021 26.672961 -59.066904 -96.427909 -162.779838 9.461446 66.17875 -41.144092 -1.285995 -18.071622 98.216858 -38.402021 -78.312026 -80.246758 -39.479881 16.639128 158.671945 -17.667751 -100.344991
-2.3768000000000002 53.3772 -2.2599 -10.073361 43.432054 -0.781914 4.702279 11.76758 134.614662 -3.257757 7.752705 -122.370481 -1.311505 24.410332 -86.454438 39.022958 -0.30794 102.698291 139.61104 -27.67593 67.619987 58.566257 -19.470746 -34.022221 -43.106544 -83.993802 -68.665235 -102.361251 -36.701551 -128.304474 -163.184413 -58.008328 -63.53321 -13.031919 -15.085175 -12.168144 -12.809594 22.801827 15.603786 -22.690909 57.553095 24.965666 -104.831173 -0.735411 118.630563 -33.676909 -76.635316 -115.029132 -19.219138 66.98496 3.771346 13.654808 -66.785731 35.343308 -0.880307 -0.229986 -9.773792 -4.292423 -2.380493 19.32145 -41.583433 5.246809 57.718472 9.976279 -17.779934 -46.060713 79.066276 66.128795 -84.072257 106.05157 44.879257 -75.118763 -31.209919 -54.739748 108.065445 -175.64374 2.548735 -134.761971 104.646793 40.675276 -61.570503 147.216883 -23.658239 -83.04972 146.901283 -51.117954 -127.790035 126.006661 -8.136874 -156.06115 149.871583 22.304938 -118.714317 9.479595 -18.647157 -26.943701 143.748281 -51.34158 162.184699 -67.110101 7.156064 -7.45469 -123.927334 -66.015472 -90.294228 114.508857 45.247597 -52.989931 -0.413982 -6.371775 -0.0 -33.830854 -16.639059 89.827901 69.814672 -30.181202 16.381044 -57.300699 -18.69368 -127.817449 79.122645 23.986267 29.291478 -69.743309 -55.955319 25.663988 82.325863 47.166572 -11.602923 6.395503 -47.64846 -85.800604
-1.9049 51.1028 -3.7337000000000002 -5.871841 41.10614 4.66807 0.861216 9.614816 161.043958 -0.45157 6.656826 -143.70544 -3.490644 22.203268 -52.548573 35.915681 -19.984821 73.152651 170.060026 4.47816 -48.419148 18.036831 -6.145526 -37.373832 0.386936 15.513677 -3.069679 -97.471951 22.700793 134.845675 -124.452673 -10.675198 -35.694049 12.209509 -56.053225 -4.591692 -92.355185 29.625521 52.878777 37.32097 -12.376309 15.672833 5.469974 -12.123428 17.147779 -161.399012 -8.069541 133.976879 -7.46042 -27.803548 -14.550624 22.876614 3.0069 2.897339 8.354719 35.371571 -2.727434 159.997006 -39.592866 170.115844 -170.388715 29.971174 179.072084 -15.568271 -17.455952 34.613901 -10.58097 -44.516004 1.830902 -62.339106 8.552274 -2.342929 -86.274246 31.618999 -76.378414 106.483929 80.770078 -78.684973 89.548921 33.729315 -49.556597 168.022259 -58.125758 -71.465821 22.034902 54.987648 -28.969472 112.532684 40.634871 -46.055609 161.664639 20.686286 -134.3818 14.057931 -30.900055 4.797599 26.877658 48.428887 1.155107 -40.213746 -36.773179 -44.268869 42.065304 40.204809 -124.323639 -97.114017 -17.371988 8.961354 6.552878 -6.494038 -7.693229 -42.427056 -32.309174 -0.0 55.814546 60.807453 -30.202568 83.887212 -57.509938 6.951703 145.83734 59.466835 38.234615 -130.115083 -11.237436 -180.0 110.755095 -78.634168 -170.17608 156.129043 -8.044247 -115.981308
